<svg xmlns="http://www.w3.org/2000/svg" xmlns:xlink="http://www.w3.org/1999/xlink" width="500" zoomAndPan="magnify" viewBox="0 0 375 374.999991" height="500" preserveAspectRatio="xMidYMid meet" version="1.0"><defs><g/></defs><g fill="#ffffff" fill-opacity="1"><g transform="translate(8.295351, 191.215092)"><g><path d="M 23.695312 -18.601562 L 23.695312 -11.144531 C 23.621094 -8.933594 23.179688 -6.9375 22.367188 -5.242188 C 21.703125 -3.765625 20.667969 -2.363281 19.191406 -1.253906 C 17.714844 -0.0742188 15.722656 0.589844 13.066406 0.589844 C 10.40625 0.589844 8.339844 -0.0742188 6.863281 -1.253906 C 5.386719 -2.363281 4.429688 -3.765625 3.765625 -5.242188 C 2.953125 -6.9375 2.507812 -8.933594 2.4375 -11.144531 L 2.4375 -43.109375 C 2.507812 -45.25 2.953125 -47.242188 3.765625 -48.941406 C 4.429688 -50.417969 5.386719 -51.894531 6.863281 -53 C 8.339844 -54.105469 10.40625 -54.84375 13.066406 -54.84375 C 15.722656 -54.84375 17.714844 -54.105469 19.191406 -53 C 20.667969 -51.894531 21.703125 -50.417969 22.367188 -48.941406 C 23.179688 -47.242188 23.621094 -45.25 23.695312 -43.109375 L 23.695312 -35.652344 L 16.238281 -35.652344 L 16.238281 -43.109375 C 16.238281 -44.585938 15.871094 -45.617188 15.058594 -46.503906 C 14.6875 -46.875 14.023438 -47.09375 13.214844 -47.09375 C 11.8125 -47.09375 11.144531 -46.0625 10.777344 -45.101562 C 10.554688 -44.511719 10.480469 -43.847656 10.40625 -43.109375 L 10.40625 -11.144531 C 10.480469 -9.597656 10.925781 -8.5625 11.664062 -7.75 C 12.03125 -7.382812 12.546875 -7.160156 13.214844 -7.160156 C 14.910156 -7.160156 15.574219 -8.046875 15.945312 -9.152344 C 16.164062 -9.667969 16.238281 -10.335938 16.238281 -11.144531 L 16.238281 -18.601562 Z M 23.695312 -18.601562 "/></g></g></g><g fill="#ffffff" fill-opacity="1"><g transform="translate(39.440859, 191.215092)"><g><path d="M 0.148438 -46.0625 L 0.148438 -54.253906 L 23.179688 -54.253906 L 23.179688 -46.0625 L 15.648438 -46.0625 L 15.648438 0 L 7.675781 0 L 7.675781 -46.0625 Z M 0.148438 -46.0625 "/></g></g></g><g fill="#ffffff" fill-opacity="1"><g transform="translate(68.372364, 191.215092)"><g><path d="M 10.925781 -54.253906 L 10.925781 -35.285156 L 11.21875 -35.285156 L 11.589844 -36.167969 L 18.234375 -54.253906 L 25.984375 -54.253906 L 18.675781 -36.390625 L 26.941406 0 L 19.191406 0 L 13.65625 -23.621094 L 13.433594 -24.726562 L 13.214844 -24.726562 L 12.769531 -23.621094 L 10.925781 -19.191406 L 10.925781 0 L 2.953125 0 L 2.953125 -54.253906 Z M 10.925781 -54.253906 "/></g></g></g><g fill="#ffffff" fill-opacity="1"><g transform="translate(101.658065, 191.215092)"><g/></g></g><g fill="#ffffff" fill-opacity="1"><g transform="translate(118.633991, 191.215092)"><g><path d="M 2.953125 -54.253906 L 21.183594 -54.253906 L 21.183594 -46.0625 L 10.925781 -46.0625 L 10.925781 -31.816406 L 18.304688 -31.816406 L 18.304688 -23.105469 L 10.925781 -23.105469 L 10.925781 -8.195312 L 21.183594 -8.195312 L 21.183594 0 L 2.953125 0 Z M 2.953125 -54.253906 "/></g></g></g><g fill="#ffffff" fill-opacity="1"><g transform="translate(146.901296, 191.215092)"><g><path d="M 8.414062 0 L 0.589844 0 L 9.375 -28.492188 L 0.738281 -54.253906 L 8.5625 -54.253906 L 12.917969 -40.523438 L 13.140625 -39.859375 L 13.433594 -39.859375 L 13.65625 -40.523438 L 18.011719 -54.253906 L 25.835938 -54.253906 L 17.199219 -28.492188 L 25.984375 0 L 18.160156 0 L 13.582031 -16.164062 L 13.433594 -16.828125 L 13.140625 -16.828125 L 12.992188 -16.164062 Z M 8.414062 0 "/></g></g></g><g fill="#ffffff" fill-opacity="1"><g transform="translate(179.080016, 191.215092)"><g><path d="M 23.695312 -18.601562 L 23.695312 -11.144531 C 23.621094 -8.933594 23.179688 -6.9375 22.367188 -5.242188 C 21.703125 -3.765625 20.667969 -2.363281 19.191406 -1.253906 C 17.714844 -0.0742188 15.722656 0.589844 13.066406 0.589844 C 10.40625 0.589844 8.339844 -0.0742188 6.863281 -1.253906 C 5.386719 -2.363281 4.429688 -3.765625 3.765625 -5.242188 C 2.953125 -6.9375 2.507812 -8.933594 2.4375 -11.144531 L 2.4375 -43.109375 C 2.507812 -45.25 2.953125 -47.242188 3.765625 -48.941406 C 4.429688 -50.417969 5.386719 -51.894531 6.863281 -53 C 8.339844 -54.105469 10.40625 -54.84375 13.066406 -54.84375 C 15.722656 -54.84375 17.714844 -54.105469 19.191406 -53 C 20.667969 -51.894531 21.703125 -50.417969 22.367188 -48.941406 C 23.179688 -47.242188 23.621094 -45.25 23.695312 -43.109375 L 23.695312 -35.652344 L 16.238281 -35.652344 L 16.238281 -43.109375 C 16.238281 -44.585938 15.871094 -45.617188 15.058594 -46.503906 C 14.6875 -46.875 14.023438 -47.09375 13.214844 -47.09375 C 11.8125 -47.09375 11.144531 -46.0625 10.777344 -45.101562 C 10.554688 -44.511719 10.480469 -43.847656 10.40625 -43.109375 L 10.40625 -11.144531 C 10.480469 -9.597656 10.925781 -8.5625 11.664062 -7.75 C 12.03125 -7.382812 12.546875 -7.160156 13.214844 -7.160156 C 14.910156 -7.160156 15.574219 -8.046875 15.945312 -9.152344 C 16.164062 -9.667969 16.238281 -10.335938 16.238281 -11.144531 L 16.238281 -18.601562 Z M 23.695312 -18.601562 "/></g></g></g><g fill="#ffffff" fill-opacity="1"><g transform="translate(210.225529, 191.215092)"><g><path d="M 17.125 -23.621094 L 10.925781 -23.621094 L 10.925781 0 L 2.953125 0 L 2.953125 -54.253906 L 10.925781 -54.253906 L 10.925781 -31.816406 L 17.125 -31.816406 L 17.125 -54.253906 L 25.097656 -54.253906 L 25.097656 0 L 17.125 0 Z M 17.125 -23.621094 "/></g></g></g><g fill="#ffffff" fill-opacity="1"><g transform="translate(243.880231, 191.215092)"><g><path d="M 0.738281 0 L 8.933594 -54.253906 L 18.675781 -54.253906 L 26.867188 0 L 19.117188 0 L 17.640625 -11.074219 L 9.964844 -11.074219 L 8.488281 0 Z M 14.246094 -36.613281 L 14.023438 -38.015625 L 13.582031 -38.015625 L 13.359375 -36.613281 L 11.074219 -19.488281 L 16.535156 -19.488281 Z M 14.246094 -36.613281 "/></g></g></g><g fill="#ffffff" fill-opacity="1"><g transform="translate(277.092135, 191.215092)"><g><path d="M 11.367188 -28.273438 L 10.703125 -30.78125 L 10.261719 -30.78125 L 10.261719 0 L 2.953125 0 L 2.953125 -54.253906 L 10.039062 -54.253906 L 17.789062 -25.984375 L 18.453125 -23.472656 L 18.898438 -23.472656 L 18.898438 -54.253906 L 26.203125 -54.253906 L 26.203125 0 L 19.117188 0 Z M 11.367188 -28.273438 "/></g></g></g><g fill="#ffffff" fill-opacity="1"><g transform="translate(311.85385, 191.215092)"><g><path d="M 15.722656 -34.765625 L 15.722656 -43.109375 C 15.722656 -44.585938 15.425781 -45.617188 14.6875 -46.503906 C 14.320312 -46.875 13.730469 -47.09375 13.066406 -47.09375 C 11.664062 -47.09375 11 -46.0625 10.703125 -45.101562 C 10.480469 -44.511719 10.40625 -43.847656 10.40625 -43.109375 L 10.40625 -10.480469 C 10.40625 -8.933594 10.777344 -7.898438 11.515625 -7.085938 C 11.882812 -6.71875 12.402344 -6.496094 13.066406 -6.496094 C 14.46875 -6.496094 15.132812 -7.382812 15.425781 -8.488281 C 15.648438 -9.003906 15.722656 -9.667969 15.722656 -10.480469 L 15.722656 -20.300781 L 12.546875 -20.300781 L 12.546875 -27.015625 L 23.695312 -27.015625 L 23.695312 0 L 18.972656 0 L 18.011719 -2.582031 C 16.535156 -0.738281 14.394531 0.589844 11.8125 0.589844 C 9.226562 0.589844 7.457031 -0.0742188 6.125 -1.253906 C 4.796875 -2.363281 3.914062 -3.765625 3.320312 -5.242188 C 2.65625 -6.9375 2.363281 -8.933594 2.4375 -11.144531 L 2.4375 -43.109375 C 2.507812 -45.25 2.953125 -47.242188 3.765625 -48.941406 C 4.429688 -50.417969 5.386719 -51.894531 6.863281 -53 C 8.339844 -54.105469 10.40625 -54.84375 13.066406 -54.84375 C 15.722656 -54.84375 17.714844 -54.105469 19.191406 -53 C 20.667969 -51.894531 21.703125 -50.417969 22.367188 -48.941406 C 23.179688 -47.242188 23.621094 -45.25 23.695312 -43.109375 L 23.695312 -34.765625 Z M 15.722656 -34.765625 "/></g></g></g><g fill="#ffffff" fill-opacity="1"><g transform="translate(344.03257, 191.215092)"><g><path d="M 2.953125 -54.253906 L 21.183594 -54.253906 L 21.183594 -46.0625 L 10.925781 -46.0625 L 10.925781 -31.816406 L 18.304688 -31.816406 L 18.304688 -23.105469 L 10.925781 -23.105469 L 10.925781 -8.195312 L 21.183594 -8.195312 L 21.183594 0 L 2.953125 0 Z M 2.953125 -54.253906 "/></g></g></g></svg>